<?xml version="1.0" encoding="utf-8"?>
<!-- Generator: Adobe Illustrator 21.0.0, SVG Export Plug-In . SVG Version: 6.00 Build 0)  -->
<svg version="1.1" id="Layer_1" xmlns="http://www.w3.org/2000/svg" xmlns:xlink="http://www.w3.org/1999/xlink" x="0px" y="0px"
	 viewBox="0 0 347.5 154" style="enable-background:new 0 0 347.5 154;" xml:space="preserve">
<style type="text/css">
	.st0{fill:none;stroke:#000000;}
	.st1{enable-background:new    ;}
	.st2{font-family:'TimesNewRomanPSMT';}
	.st3{font-size:20px;}
	.st4{font-family:'MyriadPro-Regular';}
	.st5{stroke:#000000;}
</style>
<ellipse class="st0" cx="93.5" cy="103.5" rx="30" ry="30"/>
<text transform="matrix(1 0 0 1 84.5 109.5)" class="st1"><tspan x="0" y="0" class="st2 st3">q</tspan><tspan x="10" y="0" class="st4 st3">₀</tspan></text>
<ellipse class="st0" cx="296.5" cy="103.5" rx="30" ry="30"/>
<text transform="matrix(1 0 0 1 287.5 109.5)" class="st1"><tspan x="0" y="0" class="st2 st3">q</tspan><tspan x="10" y="0" class="st4 st3">₁</tspan></text>
<ellipse class="st0" cx="296.5" cy="103.5" rx="24" ry="24"/>
<path class="st5" d="M13.5,103.5h50H13.5z"/>
<polygon points="63.5,103.5 55.5,98.5 55.5,108.5 "/>
<path class="st0" d="M80.3,76.7c-10.1-7.3-12.3-21.4-5-31.4s21.4-12.3,31.4-5s12.3,21.4,5,31.4c-1.4,1.9-3.1,3.6-5,5"/>
<text transform="matrix(1 0 0 1 89.5 27.5)" class="st2 st3">a</text>
<polygon points="106.7,76.7 115.5,73.2 107.4,67.3 "/>
<path class="st5" d="M123.5,103.5h143H123.5z"/>
<polygon points="266.5,103.5 258.5,98.5 258.5,108.5 "/>
<text transform="matrix(1 0 0 1 190.5 124.5)" class="st2 st3">b</text>
<path class="st0" d="M283.3,76.7c-10.1-7.3-12.3-21.4-5-31.4c7.3-10.1,21.4-12.3,31.4-5s12.3,21.4,5,31.4c-1.4,1.9-3.1,3.6-5,5"/>
<text transform="matrix(1 0 0 1 292.5 27.5)" class="st2 st3">a</text>
<polygon points="309.7,76.7 318.5,73.2 310.4,67.3 "/>
</svg>
