<?xml version="1.0" encoding="utf-8"?>
<!-- Generator: Adobe Illustrator 21.0.0, SVG Export Plug-In . SVG Version: 6.00 Build 0)  -->
<svg version="1.1" id="Layer_1" xmlns="http://www.w3.org/2000/svg" xmlns:xlink="http://www.w3.org/1999/xlink" x="0px" y="0px"
	 viewBox="0 0 300 274" style="enable-background:new 0 0 300 274;" xml:space="preserve">
<style type="text/css">
	.st0{fill:none;stroke:#000000;}
	.st1{enable-background:new    ;}
	.st2{font-family:'TimesNewRomanPSMT';}
	.st3{font-size:20px;}
	.st4{font-family:'MyriadPro-Regular';}
	.st5{stroke:#000000;}
</style>
<ellipse class="st0" cx="92.5" cy="59.5" rx="30" ry="30"/>
<text transform="matrix(1 0 0 1 83.5 65.5)" class="st1"><tspan x="0" y="0" class="st2 st3">q</tspan><tspan x="10" y="0" class="st4 st3">₅</tspan></text>
<ellipse class="st0" cx="254.5" cy="59.5" rx="30" ry="30"/>
<text transform="matrix(1 0 0 1 245.5 65.5)" class="st1"><tspan x="0" y="0" class="st2 st3">q</tspan><tspan x="10" y="0" class="st4 st3">₆</tspan></text>
<ellipse class="st0" cx="254.5" cy="227.5" rx="30" ry="30"/>
<text transform="matrix(1 0 0 1 245.5 233.5)" class="st1"><tspan x="0" y="0" class="st2 st3">q</tspan><tspan x="10" y="0" class="st4 st3">₇</tspan></text>
<path class="st0" d="M62.6,59.9c-10.9,5.9-24.6,1.9-30.5-9.1c-5.9-10.9-1.9-24.6,9.1-30.5c10.9-5.9,24.6-1.9,30.5,9.1
	c1.1,2.1,1.9,4.3,2.3,6.6"/>
<text transform="matrix(1 0 0 1 15.5 25.5)" class="st2 st3">a</text>
<polygon points="74,36 74.6,26.6 65.8,31.4 "/>
<path class="st5" d="M122.5,59.5h102H122.5z"/>
<polygon points="224.5,59.5 216.5,54.5 216.5,64.5 "/>
<text transform="matrix(1 0 0 1 168.5 50.5)" class="st2 st3">b</text>
<path class="st5" d="M254.5,89.5v108V89.5z"/>
<polygon points="254.5,197.5 259.5,189.5 249.5,189.5 "/>
<text transform="matrix(1 0 0 1 239.5 149.5)" class="st2 st3">b</text>
</svg>
