<?xml version="1.0" encoding="utf-8"?>
<!-- Generator: Adobe Illustrator 21.0.0, SVG Export Plug-In . SVG Version: 6.00 Build 0)  -->
<svg version="1.1" id="Layer_1" xmlns="http://www.w3.org/2000/svg" xmlns:xlink="http://www.w3.org/1999/xlink" x="0px" y="0px"
	 viewBox="0 0 378 189" style="enable-background:new 0 0 378 189;" xml:space="preserve">
<style type="text/css">
	.st0{fill:none;stroke:#000000;}
	.st1{font-family:'TimesNewRomanPSMT';}
	.st2{font-size:20px;}
	.st3{enable-background:new    ;}
	.st4{font-family:'MyriadPro-Regular';}
	.st5{stroke:#000000;}
</style>
<ellipse class="st0" cx="53.5" cy="46.5" rx="30" ry="30"/>
<text transform="matrix(1 0 0 1 43.5 52.5)" class="st1 st2">q1</text>
<ellipse class="st0" cx="166.5" cy="135.5" rx="30" ry="30"/>
<text transform="matrix(1 0 0 1 157.5 141.5)" class="st3"><tspan x="0" y="0" class="st1 st2">q</tspan><tspan x="10" y="0" class="st4 st2">₈</tspan></text>
<ellipse class="st0" cx="330.5" cy="135.5" rx="30" ry="30"/>
<text transform="matrix(1 0 0 1 321.5 141.5)" class="st3"><tspan x="0" y="0" class="st1 st2">q</tspan><tspan x="10" y="0" class="st4 st2">₉</tspan></text>
<path class="st5" d="M142.9,116.9L77.1,65.1L142.9,116.9z"/>
<polygon points="77.1,65.1 80.3,73.9 86.4,66.1 "/>
<text transform="matrix(1 0 0 1 115.5 82.5)" class="st1 st2">a</text>
<path class="st5" d="M300.5,135.5h-104H300.5z"/>
<polygon points="196.5,135.5 204.5,140.5 204.5,130.5 "/>
<text transform="matrix(1 0 0 1 236.5 126.5)" class="st1 st2">a,b</text>
</svg>
