<?xml version="1.0" encoding="utf-8"?>
<!-- Generator: Adobe Illustrator 21.0.0, SVG Export Plug-In . SVG Version: 6.00 Build 0)  -->
<svg version="1.1" id="Layer_1" xmlns="http://www.w3.org/2000/svg" xmlns:xlink="http://www.w3.org/1999/xlink" x="0px" y="0px"
	 viewBox="0 0 642.5 208" style="enable-background:new 0 0 642.5 208;" xml:space="preserve">
<style type="text/css">
	.st0{fill:none;stroke:#000000;}
	.st1{font-family:'TimesNewRomanPSMT';}
	.st2{font-size:18.2964px;}
	.st3{stroke:#000000;}
</style>
<ellipse class="st0" cx="75.2" cy="99.8" rx="27.4" ry="27.4"/>
<text transform="matrix(1 0 0 1 66.065 105.2402)" class="st1 st2">q0</text>
<ellipse class="st0" cx="278.3" cy="99.8" rx="27.4" ry="27.4"/>
<text transform="matrix(1 0 0 1 269.1539 105.2402)" class="st1 st2">q2</text>
<ellipse class="st0" cx="410" cy="99.8" rx="27.4" ry="27.4"/>
<text transform="matrix(1 0 0 1 400.8888 105.2402)" class="st1 st2">q3</text>
<ellipse class="st0" cx="579.3" cy="37.5" rx="27.4" ry="27.4"/>
<text transform="matrix(1 0 0 1 570.129 43.0327)" class="st1 st2">q4</text>
<ellipse class="st0" cx="579.3" cy="37.5" rx="22" ry="22"/>
<ellipse class="st0" cx="579.3" cy="160.1" rx="27.4" ry="27.4"/>
<text transform="matrix(1 0 0 1 570.129 165.6182)" class="st1 st2">q5</text>
<ellipse class="st0" cx="579.3" cy="160.1" rx="22" ry="22"/>
<ellipse class="st0" cx="175.8" cy="172" rx="27.4" ry="27.4"/>
<text transform="matrix(1 0 0 1 166.6949 177.5107)" class="st1 st2">q1</text>
<path class="st3" d="M19.4,99.8h28.4H19.4z"/>
<polygon points="47.8,99.8 40.5,95.2 40.5,104.3 "/>
<path class="st0" d="M95.8,81.7c48.4-34.6,113.4-34.6,161.8,0"/>
<polygon points="257.7,81.7 254.4,73.7 249.1,81.2 "/>
<text transform="matrix(1 0 0 1 172.1837 47.6069)" class="st1 st2">a</text>
<path class="st0" d="M148.7,168.5c-25.2-6.7-47.1-22.4-61.4-44.1"/>
<polygon points="148.7,168.5 142.8,162.2 140.5,171 "/>
<text transform="matrix(1 0 0 1 99.9132 171.1074)" class="st1 st2">b</text>
<path class="st0" d="M267.1,124.7c-14.4,23-37.4,39.3-64,45.1"/>
<polygon points="267.1,124.7 259.3,128.5 267.1,133.3 "/>
<text transform="matrix(1 0 0 1 244.4542 172.9375)" class="st1 st2">b</text>
<path class="st3" d="M305.7,99.8h76.8H305.7z"/>
<polygon points="382.6,99.8 375.3,95.2 375.3,104.3 "/>
<text transform="matrix(1 0 0 1 339.5953 118.9629)" class="st1 st2">c</text>
<path class="st0" d="M422.1,124.3c9.2,6.7,11.2,19.6,4.6,28.8c-6.7,9.2-19.6,11.2-28.8,4.6c-9.2-6.7-11.2-19.6-4.6-28.8
	c1.3-1.7,2.8-3.3,4.6-4.6"/>
<text transform="matrix(1 0 0 1 405.462 181.1709)" class="st1 st2">a</text>
<polygon points="397.9,124.3 389.9,127.5 397.3,132.9 "/>
<path class="st0" d="M432.3,83.7c36.1-23.4,77-38.5,119.6-44"/>
<polygon points="551.9,39.7 544.1,36.1 545.3,45.2 "/>
<text transform="matrix(1 0 0 1 476.8185 46.6924)" class="st1 st2">b</text>
<path class="st0" d="M552,157.7c-42.3-5.7-82.8-20.2-119.2-42.5"/>
<polygon points="552,157.7 545.3,152.1 544.1,161.2 "/>
<text transform="matrix(1 0 0 1 476.8185 161.959)" class="st1 st2">c</text>
</svg>
