<?xml version="1.0" encoding="utf-8"?>
<!-- Generator: Adobe Illustrator 21.0.0, SVG Export Plug-In . SVG Version: 6.00 Build 0)  -->
<svg version="1.1" id="Layer_1" xmlns="http://www.w3.org/2000/svg" xmlns:xlink="http://www.w3.org/1999/xlink" x="0px" y="0px"
	 viewBox="0 0 295.5 147.8" style="enable-background:new 0 0 295.5 147.8;" xml:space="preserve">
<style type="text/css">
	.st0{fill:none;stroke:#000000;}
	.st1{enable-background:new    ;}
	.st2{font-family:'TimesNewRomanPSMT';}
	.st3{font-size:18.3397px;}
	.st4{font-family:'MyriadPro-Regular';}
	.st5{stroke:#000000;}
</style>
<ellipse class="st0" cx="94.8" cy="71.8" rx="27.5" ry="27.5"/>
<text transform="matrix(1 0 0 1 86.5205 77.3101)" class="st1"><tspan x="0" y="0" class="st2 st3">q</tspan><tspan x="9.2" y="0" class="st4 st3">₀</tspan></text>
<ellipse class="st0" cx="94.8" cy="71.8" rx="22" ry="22"/>
<ellipse class="st0" cx="255.2" cy="71.8" rx="27.5" ry="27.5"/>
<text transform="matrix(1 0 0 1 246.9932 77.3101)" class="st1"><tspan x="0" y="0" class="st2 st3">q</tspan><tspan x="9.2" y="0" class="st4 st3">₁</tspan></text>
<path class="st0" d="M113.2,51.5c35.9-29.6,87.7-29.6,123.5,0"/>
<polygon points="236.8,51.5 234,43.3 228.2,50.4 "/>
<text transform="matrix(1 0 0 1 170.8828 21.374)" class="st2 st3">a</text>
<path class="st0" d="M237.7,92.8c-35.7,31.9-89.6,31.9-125.3,0"/>
<polygon points="112.3,92.8 114.8,101.2 120.9,94.3 "/>
<text transform="matrix(1 0 0 1 170.8828 135.9971)" class="st2 st3">a</text>
<path class="st5" d="M12.2,71.8h55H12.2z"/>
<polygon points="67.3,71.8 59.9,67.2 59.9,76.4 "/>
</svg>
