<?xml version="1.0" encoding="utf-8"?>
<!-- Generator: Adobe Illustrator 21.0.0, SVG Export Plug-In . SVG Version: 6.00 Build 0)  -->
<svg version="1.1" id="Layer_1" xmlns="http://www.w3.org/2000/svg" xmlns:xlink="http://www.w3.org/1999/xlink" x="0px" y="0px"
	 viewBox="0 0 492 235" style="enable-background:new 0 0 492 235;" xml:space="preserve">
<style type="text/css">
	.st0{fill:none;stroke:#000000;}
	.st1{enable-background:new    ;}
	.st2{font-family:'TimesNewRomanPSMT';}
	.st3{font-size:20px;}
	.st4{font-family:'MyriadPro-Regular';}
	.st5{stroke:#000000;}
</style>
<ellipse class="st0" cx="79.5" cy="57.5" rx="30" ry="30"/>
<text transform="matrix(1 0 0 1 70.5 63.5)" class="st1"><tspan x="0" y="0" class="st2 st3">q</tspan><tspan x="10" y="0" class="st4 st3">₀</tspan></text>
<ellipse class="st0" cx="79.5" cy="57.5" rx="24" ry="24"/>
<ellipse class="st0" cx="272.5" cy="193.5" rx="30" ry="30"/>
<text transform="matrix(1 0 0 1 263.5 199.5)" class="st1"><tspan x="0" y="0" class="st2 st3">q</tspan><tspan x="10" y="0" class="st4 st3">₁</tspan></text>
<ellipse class="st0" cx="272.5" cy="57.5" rx="30" ry="30"/>
<text transform="matrix(1 0 0 1 263.5 63.5)" class="st1"><tspan x="0" y="0" class="st2 st3">q</tspan><tspan x="10" y="0" class="st4 st3">₂</tspan></text>
<ellipse class="st0" cx="438.5" cy="57.5" rx="30" ry="30"/>
<text transform="matrix(1 0 0 1 429.5 63.5)" class="st1"><tspan x="0" y="0" class="st2 st3">q</tspan><tspan x="10" y="0" class="st4 st3">₅</tspan></text>
<ellipse class="st0" cx="438.5" cy="57.5" rx="24" ry="24"/>
<path class="st5" d="M17.5,57.5h32H17.5z"/>
<polygon points="49.5,57.5 41.5,52.5 41.5,62.5 "/>
<path class="st0" d="M107.7,47.3c44.6-13.1,92-13.1,136.6,0"/>
<polygon points="244.3,47.3 238,40.2 235.2,49.8 "/>
<text transform="matrix(1 0 0 1 171.5 28.5)" class="st2 st3">a</text>
<path class="st0" d="M254.9,169.4c-14.2-27.5-14.2-60.2,0-87.8"/>
<polygon points="254.9,81.6 246.8,86.5 255.7,91 "/>
<text transform="matrix(1 0 0 1 230.5 131.5)" class="st2 st3">a</text>
<path class="st0" d="M245.3,70c-44.7,16.6-93.9,16.6-138.5,0"/>
<polygon points="106.7,70 112.5,77.5 116,68.1 "/>
<text transform="matrix(1 0 0 1 170.5 103.5)" class="st2 st3">b</text>
<path class="st5" d="M302.5,57.5h106H302.5z"/>
<polygon points="408.5,57.5 400.5,52.5 400.5,62.5 "/>
<text transform="matrix(1 0 0 1 350.5 78.5)" class="st2 st3">b</text>
<path class="st0" d="M286.7,83.8c10.2,26.8,10.2,56.5,0,83.3"/>
<polygon points="286.7,167.2 294.2,161.5 284.9,157.9 "/>
<text transform="matrix(1 0 0 1 299.5 131.5)" class="st2 st3">b</text>
</svg>
