<?xml version="1.0" standalone="no"?>
<!DOCTYPE svg PUBLIC "-//W3C//DTD SVG 1.1//EN" "http://www.w3.org/Graphics/SVG/1.1/DTD/svg11.dtd">

<svg width="800" height="600" version="1.1" xmlns="http://www.w3.org/2000/svg">
	<ellipse stroke="black" stroke-width="1" fill="none" cx="77.5" cy="271.5" rx="30" ry="30"/>
	<text x="68.5" y="277.5" font-family="Times New Roman" font-size="20">q&#8320;</text>
	<ellipse stroke="black" stroke-width="1" fill="none" cx="202.5" cy="271.5" rx="30" ry="30"/>
	<text x="193.5" y="277.5" font-family="Times New Roman" font-size="20">q&#8321;</text>
	<ellipse stroke="black" stroke-width="1" fill="none" cx="325.5" cy="271.5" rx="30" ry="30"/>
	<text x="316.5" y="277.5" font-family="Times New Roman" font-size="20">q&#8322;</text>
	<ellipse stroke="black" stroke-width="1" fill="none" cx="452.5" cy="271.5" rx="30" ry="30"/>
	<text x="443.5" y="277.5" font-family="Times New Roman" font-size="20">q&#8323;</text>
	<ellipse stroke="black" stroke-width="1" fill="none" cx="594.5" cy="271.5" rx="30" ry="30"/>
	<text x="585.5" y="277.5" font-family="Times New Roman" font-size="20">q&#8324;</text>
	<ellipse stroke="black" stroke-width="1" fill="none" cx="729.5" cy="271.5" rx="30" ry="30"/>
	<text x="720.5" y="277.5" font-family="Times New Roman" font-size="20">q&#8325;</text>
	<ellipse stroke="black" stroke-width="1" fill="none" cx="729.5" cy="271.5" rx="24" ry="24"/>
	<polygon stroke="black" stroke-width="1" points="22.5,271.5 47.5,271.5"/>
	<polygon fill="black" stroke-width="1" points="47.5,271.5 39.5,266.5 39.5,276.5"/>
	<polygon stroke="black" stroke-width="1" points="107.5,271.5 172.5,271.5"/>
	<polygon fill="black" stroke-width="1" points="172.5,271.5 164.5,266.5 164.5,276.5"/>
	<text x="135.5" y="262.5" font-family="Times New Roman" font-size="20">&#955;</text>
	<polygon stroke="black" stroke-width="1" points="232.5,271.5 295.5,271.5"/>
	<polygon fill="black" stroke-width="1" points="295.5,271.5 287.5,266.5 287.5,276.5"/>
	<text x="259.5" y="262.5" font-family="Times New Roman" font-size="20">a</text>
	<polygon stroke="black" stroke-width="1" points="355.5,271.5 422.5,271.5"/>
	<polygon fill="black" stroke-width="1" points="422.5,271.5 414.5,266.5 414.5,276.5"/>
	<text x="384.5" y="262.5" font-family="Times New Roman" font-size="20">&#955;</text>
	<polygon stroke="black" stroke-width="1" points="482.5,271.5 564.5,271.5"/>
	<polygon fill="black" stroke-width="1" points="564.5,271.5 556.5,266.5 556.5,276.5"/>
	<text x="518.5" y="262.5" font-family="Times New Roman" font-size="20">b</text>
	<polygon stroke="black" stroke-width="1" points="624.5,271.5 699.5,271.5"/>
	<polygon fill="black" stroke-width="1" points="699.5,271.5 691.5,266.5 691.5,276.5"/>
	<text x="657.5" y="262.5" font-family="Times New Roman" font-size="20">&#955;</text>
	<path stroke="black" stroke-width="1" fill="none" d="M 703.001,285.559 A 667.473,667.473 0 0 1 103.999,285.559"/>
	<polygon fill="black" stroke-width="1" points="703.001,285.559 693.608,284.68 698.095,293.617"/>
	<text x="398.5" y="377.5" font-family="Times New Roman" font-size="20">&#955;</text>
	<path stroke="black" stroke-width="1" fill="none" d="M 225.805,252.63 A 293.328,293.328 0 0 1 571.195,252.63"/>
	<polygon fill="black" stroke-width="1" points="225.805,252.63 235.215,251.961 229.328,243.878"/>
	<text x="393.5" y="187.5" font-family="Times New Roman" font-size="20">&#955;</text>
</svg>
