<?xml version="1.0" encoding="utf-8"?>
<!-- Generator: Adobe Illustrator 21.0.0, SVG Export Plug-In . SVG Version: 6.00 Build 0)  -->
<svg version="1.1" id="Layer_1" xmlns="http://www.w3.org/2000/svg" xmlns:xlink="http://www.w3.org/1999/xlink" x="0px" y="0px"
	 viewBox="0 0 434.5 173" style="enable-background:new 0 0 434.5 173;" xml:space="preserve">
<style type="text/css">
	.st0{fill:none;stroke:#000000;}
	.st1{enable-background:new    ;}
	.st2{font-family:'TimesNewRomanPSMT';}
	.st3{font-size:18.6047px;}
	.st4{font-family:'MyriadPro-Regular';}
	.st5{stroke:#000000;}
</style>
<ellipse class="st0" cx="80.3" cy="34.4" rx="27.9" ry="27.9"/>
<text transform="matrix(1 0 0 1 71.8838 39.9888)" class="st1"><tspan x="0" y="0" class="st2 st3">q</tspan><tspan x="9.3" y="0" class="st4 st3">₀</tspan></text>
<ellipse class="st0" cx="80.3" cy="34.4" rx="22.3" ry="22.3"/>
<ellipse class="st0" cx="227.2" cy="138.6" rx="27.9" ry="27.9"/>
<text transform="matrix(1 0 0 1 218.8608 144.1748)" class="st1"><tspan x="0" y="0" class="st2 st3">q</tspan><tspan x="9.3" y="0" class="st4 st3">₁</tspan></text>
<ellipse class="st0" cx="227.2" cy="34.4" rx="27.9" ry="27.9"/>
<text transform="matrix(1 0 0 1 218.8608 39.9888)" class="st1"><tspan x="0" y="0" class="st2 st3">q</tspan><tspan x="9.3" y="0" class="st4 st3">₂</tspan></text>
<ellipse class="st0" cx="391" cy="34.4" rx="27.9" ry="27.9"/>
<text transform="matrix(1 0 0 1 382.582 39.9888)" class="st1"><tspan x="0" y="0" class="st2 st3">q</tspan><tspan x="9.3" y="0" class="st4 st3">₄</tspan></text>
<ellipse class="st0" cx="391" cy="34.4" rx="22.3" ry="22.3"/>
<path class="st5" d="M15.1,34.4h37.2H15.1z"/>
<polygon points="52.3,34.4 44.9,29.8 44.9,39.1 "/>
<path class="st5" d="M108.2,34.4h91.2H108.2z"/>
<polygon points="199.3,34.4 191.9,29.8 191.9,39.1 "/>
<text transform="matrix(1 0 0 1 150.0234 26.0352)" class="st2 st3">a</text>
<path class="st5" d="M255.1,34.4H363H255.1z"/>
<polygon points="363,34.4 355.6,29.8 355.6,39.1 "/>
<text transform="matrix(1 0 0 1 304.4424 26.0352)" class="st2 st3">b</text>
<path class="st0" d="M245.8,54.9c11.2,19.6,11.2,43.6,0,63.2"/>
<polygon points="245.8,118.1 253.6,113.9 245.5,109.3 "/>
<text transform="matrix(1 0 0 1 258.8604 92.082)" class="st2 st3">a</text>
<path class="st0" d="M210.1,116.8c-9.5-19.1-9.5-41.6,0-60.7"/>
<polygon points="210.1,56.2 202.6,60.8 210.9,64.9 "/>
<text transform="matrix(1 0 0 1 189.0933 92.082)" class="st2 st3">b</text>
</svg>
