<?xml version="1.0" encoding="utf-8"?>
<!-- Generator: Adobe Illustrator 21.0.0, SVG Export Plug-In . SVG Version: 6.00 Build 0)  -->
<svg version="1.1" id="Layer_1" xmlns="http://www.w3.org/2000/svg" xmlns:xlink="http://www.w3.org/1999/xlink" x="0px" y="0px"
	 viewBox="0 0 441 147" style="enable-background:new 0 0 441 147;" xml:space="preserve">
<style type="text/css">
	.st0{fill:none;stroke:#000000;}
	.st1{enable-background:new    ;}
	.st2{font-family:'TimesNewRomanPSMT';}
	.st3{font-size:20px;}
	.st4{font-family:'MyriadPro-Regular';}
	.st5{stroke:#000000;}
</style>
<ellipse class="st0" cx="79.5" cy="100.5" rx="30" ry="30"/>
<text transform="matrix(1 0 0 1 70.5 106.5)" class="st1"><tspan x="0" y="0" class="st2 st3">q</tspan><tspan x="10" y="0" class="st4 st3">₀</tspan></text>
<ellipse class="st0" cx="232.5" cy="100.5" rx="30" ry="30"/>
<text transform="matrix(1 0 0 1 223.5 106.5)" class="st1"><tspan x="0" y="0" class="st2 st3">q</tspan><tspan x="10" y="0" class="st4 st3">₁</tspan></text>
<ellipse class="st0" cx="397.5" cy="100.5" rx="30" ry="30"/>
<text transform="matrix(1 0 0 1 388.5 106.5)" class="st1"><tspan x="0" y="0" class="st2 st3">q</tspan><tspan x="10" y="0" class="st4 st3">₂</tspan></text>
<ellipse class="st0" cx="397.5" cy="100.5" rx="24" ry="24"/>
<path class="st5" d="M9.5,100.5h40H9.5z"/>
<polygon points="49.5,100.5 41.5,95.5 41.5,105.5 "/>
<path class="st5" d="M109.5,100.5h93H109.5z"/>
<polygon points="202.5,100.5 194.5,95.5 194.5,105.5 "/>
<text transform="matrix(1 0 0 1 151.5 91.5)" class="st2 st3">a</text>
<path class="st5" d="M262.5,100.5h105H262.5z"/>
<polygon points="367.5,100.5 359.5,95.5 359.5,105.5 "/>
<text transform="matrix(1 0 0 1 310.5 91.5)" class="st2 st3">b</text>
<path class="st0" d="M66.3,73.7c-10.1-7.3-12.3-21.4-5-31.4s21.4-12.3,31.4-5s12.3,21.4,5,31.4c-1.4,1.9-3.1,3.6-5,5"/>
<text transform="matrix(1 0 0 1 67.5 24.5)" class="st2 st3">a,b</text>
<polygon points="92.7,73.7 101.5,70.2 93.4,64.3 "/>
</svg>
