<?xml version="1.0" encoding="utf-8"?>
<!-- Generator: Adobe Illustrator 21.0.0, SVG Export Plug-In . SVG Version: 6.00 Build 0)  -->
<svg version="1.1" id="Layer_1" xmlns="http://www.w3.org/2000/svg" xmlns:xlink="http://www.w3.org/1999/xlink" x="0px" y="0px"
	 viewBox="0 0 329 275" style="enable-background:new 0 0 329 275;" xml:space="preserve">
<style type="text/css">
	.st0{fill:none;stroke:#000000;}
	.st1{enable-background:new    ;}
	.st2{font-family:'TimesNewRomanPSMT';}
	.st3{font-size:20px;}
	.st4{font-family:'MyriadPro-Regular';}
	.st5{stroke:#000000;}
</style>
<ellipse class="st0" cx="77.5" cy="103.5" rx="30" ry="30"/>
<text transform="matrix(1 0 0 1 68.5 109.5)" class="st1"><tspan x="0" y="0" class="st2 st3">q</tspan><tspan x="10" y="0" class="st4 st3">₀</tspan></text>
<ellipse class="st0" cx="272.5" cy="103.5" rx="30" ry="30"/>
<text transform="matrix(1 0 0 1 263.5 109.5)" class="st1"><tspan x="0" y="0" class="st2 st3">q</tspan><tspan x="10" y="0" class="st4 st3">₁</tspan></text>
<ellipse class="st0" cx="272.5" cy="234.5" rx="30" ry="30"/>
<text transform="matrix(1 0 0 1 263.5 240.5)" class="st1"><tspan x="0" y="0" class="st2 st3">q</tspan><tspan x="10" y="0" class="st4 st3">₂</tspan></text>
<ellipse class="st0" cx="272.5" cy="234.5" rx="24" ry="24"/>
<path class="st5" d="M9.5,103.5h38H9.5z"/>
<polygon points="47.5,103.5 39.5,98.5 39.5,108.5 "/>
<path class="st0" d="M64.3,76.7c-10.1-7.3-12.3-21.4-5-31.4s21.4-12.3,31.4-5s12.3,21.4,5,31.4c-1.4,1.9-3.1,3.6-5,5"/>
<text transform="matrix(1 0 0 1 72.5 27.5)" class="st2 st3">b</text>
<polygon points="90.7,76.7 99.5,73.2 91.4,67.3 "/>
<path class="st5" d="M107.5,103.5h135H107.5z"/>
<polygon points="242.5,103.5 234.5,98.5 234.5,108.5 "/>
<text transform="matrix(1 0 0 1 170.5 94.5)" class="st2 st3">a</text>
<path class="st0" d="M259.3,76.7c-10.1-7.3-12.3-21.4-5-31.4c7.3-10.1,21.4-12.3,31.4-5s12.3,21.4,5,31.4c-1.4,1.9-3.1,3.6-5,5"/>
<text transform="matrix(1 0 0 1 268.5 27.5)" class="st2 st3">a</text>
<polygon points="285.7,76.7 294.5,73.2 286.4,67.3 "/>
<path class="st0" d="M288.8,128.5c11.6,25.7,11.6,55.2,0,80.9"/>
<polygon points="288.8,209.5 296.7,204.2 287.6,200.1 "/>
<text transform="matrix(1 0 0 1 302.5 174.5)" class="st2 st3">b</text>
<path class="st0" d="M256.1,209.5c-11.8-25.7-11.8-55.3,0-81.1"/>
<polygon points="256.1,128.5 248.2,133.7 257.3,137.8 "/>
<text transform="matrix(1 0 0 1 233.5 174.5)" class="st2 st3">a</text>
<path class="st5" d="M247.6,217.8l-145.2-97.5L247.6,217.8z"/>
<polygon points="102.4,120.2 106.3,128.8 111.8,120.5 "/>
<text transform="matrix(1 0 0 1 159.5 189.5)" class="st2 st3">b</text>
</svg>
